<svg id="Capa_1" enable-background="new 0 0 512.063 512.063" height="512" viewBox="0 0 512.063 512.063" width="512" xmlns="http://www.w3.org/2000/svg"><g id="Baseball_1_"><circle cx="437.063" cy="437.031" r="75"/><g><g><path d="m89.233 507.638-84.84-84.84c-5.858-5.858-5.858-15.355 0-21.213l10.607-10.607c11.716-11.716 30.711-11.716 42.426 0l63.626 63.626c11.716 11.716 11.716 30.711 0 42.426l-10.607 10.607c-5.857 5.859-15.354 5.859-21.212.001z"/></g><g><path d="m132.528 423.654 88.315-74.938-57.473-57.473-74.998 88.255z"/><path d="m494.489 17.605c-23.432-23.432-61.421-23.432-84.853 0l-78.676 78.676c-53.557 53.557-103.276 110.811-148.791 171.335l62.308 62.308c60.524-45.515 117.778-95.233 171.335-148.79l78.676-78.676c23.432-23.432 23.432-61.422.001-84.853z"/></g></g></g></svg>