<svg id="Capa_1" enable-background="new 0 0 512 512" height="512" viewBox="0 0 512 512" width="512" xmlns="http://www.w3.org/2000/svg"><g><path d="m431.268 168.339 55.621-23.039c-24.881-51.8-66.685-93.923-118.24-119.229l-23.047 55.641c36.907 19.051 67.014 49.485 85.666 86.627z"/><path d="m256 452c-21.645 0-42.479-3.535-61.963-10.044l-23.022 55.58c26.594 9.357 55.191 14.464 84.985 14.464 29.029 0 56.925-4.84 82.936-13.743l-23.042-55.628c-18.888 6.076-39.012 9.371-59.894 9.371z"/><circle cx="256" cy="256" r="106"/><path d="m343.661 431.268 23.039 55.621c51.8-24.881 93.923-66.685 119.229-118.24l-55.641-23.047c-19.051 36.907-49.485 67.014-86.627 85.666z"/><path d="m256 90c-91.533 0-166 74.467-166 166s74.467 166 166 166 166-74.467 166-166-74.467-166-166-166zm0 302c-74.991 0-136-61.009-136-136s61.009-136 136-136 136 61.009 136 136-61.009 136-136 136z"/><path d="m80.732 343.661-55.621 23.039c24.881 51.8 66.685 93.923 118.24 119.229l23.047-55.641c-36.907-19.051-67.014-49.485-85.666-86.627z"/><path d="m498.257 173.064-55.628 23.042c6.076 18.888 9.371 39.012 9.371 59.894 0 21.645-3.535 42.479-10.044 61.963l55.58 23.022c9.357-26.594 14.464-55.191 14.464-84.985 0-29.029-4.84-56.925-13.743-82.936z"/><path d="m60 256c0-21.645 3.535-42.479 10.044-61.963l-55.58-23.022c-9.357 26.594-14.464 55.191-14.464 84.985 0 29.029 4.84 56.925 13.743 82.936l55.628-23.042c-6.076-18.888-9.371-39.012-9.371-59.894z"/><path d="m168.339 80.732-23.039-55.621c-51.8 24.88-93.923 66.684-119.229 118.239l55.641 23.047c19.051-36.906 49.485-67.013 86.627-85.665z"/><path d="m256 60c21.645 0 42.479 3.535 61.963 10.044l23.022-55.58c-26.594-9.357-55.191-14.464-84.985-14.464-29.029 0-56.925 4.84-82.936 13.743l23.042 55.628c18.888-6.076 39.012-9.371 59.894-9.371z"/></g></svg>