<?xml version="1.0" encoding="iso-8859-1"?>
<!-- Generator: Adobe Illustrator 19.0.0, SVG Export Plug-In . SVG Version: 6.00 Build 0)  -->
<svg version="1.1" id="Capa_1" xmlns="http://www.w3.org/2000/svg" xmlns:xlink="http://www.w3.org/1999/xlink" x="0px" y="0px"
	 viewBox="0 0 512 512" style="enable-background:new 0 0 512 512;" xml:space="preserve">
<g>
	<g>
		<rect x="138.667" width="42.667" height="448"/>
	</g>
</g>
<g>
	<g>
		<path d="M202.667,388.267v38.4c0,23.467-19.2,42.667-42.667,42.667s-42.667-19.2-42.667-42.667v-38.4c-38.4,8.533-64,32-64,59.733
			c0,36.267,44.8,64,106.667,64s106.667-27.733,106.667-64C266.667,420.267,241.067,398.933,202.667,388.267z"/>
	</g>
</g>
<g>
	<g>
		<path d="M445.867,87.467L232.533,2.133c-14.933-6.4-29.867,4.267-29.867,19.2V192c0,14.933,14.933,25.6,29.867,19.2
			l213.333-85.333C462.933,119.467,462.933,93.867,445.867,87.467z"/>
	</g>
</g>
<g>
</g>
<g>
</g>
<g>
</g>
<g>
</g>
<g>
</g>
<g>
</g>
<g>
</g>
<g>
</g>
<g>
</g>
<g>
</g>
<g>
</g>
<g>
</g>
<g>
</g>
<g>
</g>
<g>
</g>
</svg>
