<svg id="Capa_1" enable-background="new 0 0 512.018 512.018" height="512" viewBox="0 0 512.018 512.018" width="512" xmlns="http://www.w3.org/2000/svg"><g><path d="m194.505 238.218-.001-53.615c-3.799 1.862-8.039 3.664-12.801 5.377-22.789 8.197-52.781 12.712-84.451 12.712s-61.663-4.515-84.452-12.712c-4.762-1.713-9.002-3.515-12.801-5.376v53.631c.166 1.34 5.042 8.267 24.451 14.964 19.464 6.715 45.319 10.414 72.802 10.414s53.337-3.699 72.801-10.414c19.41-6.699 24.285-13.626 24.452-14.981z"/><path d="m24.451 162.277c19.464 6.715 45.319 10.414 72.802 10.414s53.337-3.699 72.801-10.414c19.334-6.671 24.247-13.571 24.449-14.964-.202-1.393-5.115-8.293-24.449-14.964-19.464-6.715-45.318-10.414-72.801-10.414s-53.338 3.699-72.802 10.414c-19.39 6.689-24.275 13.609-24.451 14.974v.009c.176 1.335 5.061 8.254 24.451 14.945z"/><path d="m.004 447.289v64.708h76.652v-141.664c-42.294.17-76.652 34.623-76.652 76.956z"/><path d="m510.942 38.102c-2.713-12.734-10.254-23.601-21.233-30.598-22.049-14.052-51.709-7.732-66.115 14.087l-50.276 76.142 79.173 55.012 51.534-78.047c7.174-10.865 9.63-23.862 6.917-36.596z"/><path d="m193.328 370.325h-86.672v141.672h108.623l220.677-334.211-79.173-55.012z"/></g></svg>