<svg height="512" viewBox="0 0 64 64" width="512" xmlns="http://www.w3.org/2000/svg"><g id="Glyph"><path d="m41 28h10.9a5.008 5.008 0 0 0 -4.9-4h-6z"/><path d="m19 30h-5.723l-6.667 4h6.075a7 7 0 0 1 6.315-4z"/><path d="m25.315 34h4.15l2.667-4h-13.132a7 7 0 0 1 6.315 4z"/><path d="m4 36v2h8.08a6.29 6.29 0 0 1 0-2z"/><path d="m42.08 38a6.29 6.29 0 0 1 0-2h-16.16a6.29 6.29 0 0 1 0 2z"/><circle cx="49" cy="37" r="5"/><path d="m56 36h4v2h-4z"/><path d="m22 28v-1.937a6.868 6.868 0 0 0 -3.983 1.937z"/><path d="m35 26a2 2 0 0 0 -4 0v2h4z"/><path d="m42.685 34a7.037 7.037 0 0 1 1.315-1.889v-2.111h-4.465l-2.667 4z"/><path d="m55.315 34h.685v-4h-7a7 7 0 0 1 6.315 4z"/><path d="m54 28h3a1 1 0 0 1 1 1v5h2v-12h-6z"/><circle cx="19" cy="37" r="5"/><path d="m34.465 34 2.666-4h-2.596l-2.666 4z"/></g></svg>