<svg id="Capa_1" enable-background="new 0 0 512 512" height="512" viewBox="0 0 512 512" width="512" xmlns="http://www.w3.org/2000/svg"><g><path d="m85.33 327.485c4.989 0 8.547-.344 11.675-1.057l-24.296-60.843h-33.295l17.873 54.176c1.405.643 2.755 1.275 4.053 1.883 8.556 4.011 12.459 5.841 23.99 5.841z"/><path d="m281.527 198.291 23.558 53.174-19.32-18.911c-14.106-13.807-34.503-18.518-53.238-12.291-18.731 6.226-32.253 22.211-35.287 41.717l-.56 3.604h-29.213l16.96 42.473c22.768 1.959 36.844 8.556 47.578 13.588 8.554 4.01 12.457 5.84 23.989 5.84 11.531 0 15.436-1.83 23.989-5.839 12.75-5.977 30.21-14.161 61.344-14.161 31.136 0 48.596 8.184 61.344 14.16 8.555 4.01 12.46 5.84 23.993 5.84s15.438-1.83 23.993-5.84c1.603-.751 3.281-1.538 5.051-2.338l16.879-53.721h-83.644l-41.983-97.294h-218.345l11.98 30h140.932zm-54.452 67.294c1.596-7.995 7.1-14.255 14.915-16.853 8.142-2.706 16.661-.739 22.791 5.262l11.842 11.591z"/><path d="m426.663 356.485c-17.993 0-26.478-3.977-36.302-8.582-11.418-5.352-24.359-11.418-49.035-11.418-24.674 0-37.615 6.066-49.033 11.418-9.824 4.605-18.308 8.582-36.3 8.582s-26.476-3.977-36.299-8.582c-6.479-3.037-13.451-6.302-22.775-8.56l17.583 44.033c1.785.8 3.506 1.605 5.192 2.396 9.823 4.605 18.307 8.582 36.299 8.582s26.476-3.977 36.3-8.582c11.418-5.352 24.359-11.418 49.033-11.418 24.675 0 37.617 6.066 49.035 11.418 9.824 4.605 18.309 8.582 36.302 8.582s26.478-3.977 36.302-8.582c11.418-5.352 24.359-11.418 49.035-11.418v-37.868c-24.675 0-37.617 6.066-49.035 11.418-9.824 4.604-18.309 8.581-36.302 8.581z"/><path d="m85.331 356.485c-17.991 0-26.475-3.977-36.298-8.582-11.418-5.352-24.359-11.418-49.033-11.418v37.868c24.674 0 37.615 6.066 49.032 11.418 9.823 4.605 18.307 8.582 36.298 8.582 17.511 0 26.018-3.77 35.518-8.216l-13.018-32.601c-5.873 1.787-12.799 2.949-22.499 2.949z"/><path d="m192.803 407.195-109.985-277.728-27.861 11.125 104.692 264.359c-10.93 1.272-17.719 4.438-25.285 7.984-.782.367-1.572.737-2.372 1.108-10.875 5.047-23.677 10.31-46.661 10.31-24.674 0-37.614-6.066-49.032-11.418-9.823-4.605-18.307-8.582-36.299-8.582v49.815 1.077h512v-1.077-49.815c-17.993 0-26.478 3.977-36.302 8.582-11.418 5.352-24.359 11.418-49.035 11.418s-37.617-6.066-49.035-11.418c-9.824-4.605-18.309-8.582-36.302-8.582-17.992 0-26.476 3.977-36.3 8.582-11.418 5.352-24.359 11.418-49.033 11.418-10.68 0-19.159-1.138-26.27-2.861-9.318-2.258-16.286-5.522-22.762-8.557-4.634-2.172-8.981-4.198-14.158-5.74z"/><path d="m288.9 139.958c25.97 2.314 47.635-19.351 45.32-45.321-1.774-19.907-17.805-35.938-37.713-37.713-25.97-2.315-47.636 19.351-45.321 45.321 1.775 19.908 17.806 35.939 37.714 37.713z"/></g></svg>