<?xml version="1.0" encoding="iso-8859-1"?>
<!-- Generator: Adobe Illustrator 19.0.0, SVG Export Plug-In . SVG Version: 6.00 Build 0)  -->
<svg version="1.1" id="Capa_1" xmlns="http://www.w3.org/2000/svg" xmlns:xlink="http://www.w3.org/1999/xlink" x="0px" y="0px"
	 viewBox="0 0 501.338 501.338" style="enable-background:new 0 0 501.338 501.338;" xml:space="preserve">
<g>
	<g>
		<g>
			<path d="M7.136,403.204c-8.328,8.331-8.328,21.835,0,30.165l30.165,30.272c8.331,8.328,21.835,8.328,30.165,0l75.435-75.371
				l-60.331-60.395L7.136,403.204z"/>
			<path d="M97.653,312.794l60.331,60.331c25.493-25.493,70.101-3.136,123.072,2.389L95.243,189.7
				C100.789,242.692,123.125,287.322,97.653,312.794z"/>
			<path d="M414.347,327.812c74.987-73.938,75.837-194.665,1.899-269.652c-0.021-0.022-0.043-0.044-0.065-0.066
				c-73.812-75.934-195.206-77.654-271.14-3.841c-0.719,0.699-1.432,1.403-2.14,2.113c-28.747,26.6-46.073,63.3-48.341,102.4
				l217.387,217.387C351.046,373.885,387.747,356.559,414.347,327.812z"/>
			<circle cx="436.448" cy="437.338" r="64"/>
		</g>
	</g>
</g>
<g>
</g>
<g>
</g>
<g>
</g>
<g>
</g>
<g>
</g>
<g>
</g>
<g>
</g>
<g>
</g>
<g>
</g>
<g>
</g>
<g>
</g>
<g>
</g>
<g>
</g>
<g>
</g>
<g>
</g>
</svg>
