<svg id="Layer_5" enable-background="new 0 0 64 64" height="512" viewBox="0 0 64 64" width="512" xmlns="http://www.w3.org/2000/svg"><g><path d="m39 33.216-14-1.191v4.07l14 1.098z"/><path d="m29.558 21.028c-.185-.013-.37-.028-.558-.028s-.373.015-.558.028l.558.558z"/><path d="m32 27.414-2.949 2.948 2.923.249 1.612-1.611z"/><path d="m27.879 24.879h2.243v2.243h-2.243z" transform="matrix(.707 -.707 .707 .707 -9.891 28.12)"/><path d="m27.586 29-1.586-1.586-2.478 2.478 2.923.249z"/><path d="m23 41.445v-9.591l-2-.17v9.761c0 2.551 1.732 4.701 4.08 5.35-.042-.261-.08-.523-.08-.795 0-.444.077-.866.186-1.276-1.283-.537-2.186-1.804-2.186-3.279z"/><path d="m30 43c-1.654 0-3 1.346-3 3s1.346 3 3 3h4c1.654 0 3-1.346 3-3s-1.346-3-3-3z"/><path d="m54.984 7.602c-.193-2.44-2.146-4.393-4.586-4.586l-7.984 7.984 4.586 4.586z"/><path d="m34.581 30.833 2.161.184c.17-.656.258-1.331.258-2.017 0-.188-.015-.372-.028-.557z"/><path d="m19.023 29.509c-.009-.17-.023-.339-.023-.509 0-5.514 4.486-10 10-10s10 4.486 10 10c0 .742-.09 1.472-.25 2.188l2.59.22 4.522-14.132-5.138-5.138-15.176 4.856c-5.112 1.636-8.548 6.342-8.548 11.711 0 .215.026.423.037.636zm20.977-13.509c1.105 0 2 .895 2 2s-.895 2-2 2-2-.895-2-2 .895-2 2-2z"/><path d="m43 41.445v-7.889l-2-.17v8.059c0 1.475-.903 2.742-2.186 3.279.109.41.186.832.186 1.276 0 .272-.038.534-.08.795 2.348-.648 4.08-2.798 4.08-5.35z"/><path d="m37.91 42.921c.63-.199 1.09-.781 1.09-1.476v-2.246l-14-1.098v3.344c0 .695.461 1.277 1.091 1.476.916-1.161 2.319-1.921 3.909-1.921h4c1.59 0 2.993.76 3.91 1.921z"/><path d="m51 61h2v-20.703l-2-.156z"/><path d="m15 57h34v4h-34z"/><path d="m45 41.445c0 3.98-3.094 7.242-7.002 7.527-.913 1.223-2.358 2.028-3.998 2.028h-4c-1.64 0-3.085-.805-3.998-2.028-3.908-.285-7.002-3.547-7.002-7.527v-3.815l-4-.314v17.684h34v-15.016l-4-.314z"/><path d="m11 37.013v23.987h2v-23.84l-1.74-.137c-.087-.006-.173-.006-.26-.01z"/><path d="m55 40.539v20.274c3.428-.761 6-3.821 6-7.475v-5.331c0-3.607-2.563-6.698-6-7.468z"/><path d="m19 35.624v-4.11l-5.72-.487c-.216-.018-.43-.027-.647-.027-3.521 0-6.485 2.4-7.362 5.648 1.541-1.04 3.396-1.648 5.39-1.648.252 0 .503.01.755.029z"/><path d="m52.014 34.323-7.014-.596v3.937l9.095.714c1.725.135 3.315.737 4.666 1.663-.777-3.096-3.416-5.434-6.747-5.718z"/><path d="m30.414 23 1.586 1.586 1.898-1.898c-.611-.475-1.292-.863-2.026-1.146z"/><path d="m33.414 26 1.586 1.586 1.458-1.458c-.284-.734-.671-1.414-1.146-2.026z"/><path d="m24.102 22.688 1.898 1.898 1.586-1.586-1.458-1.458c-.734.284-1.414.671-2.026 1.146z"/><path d="m21 29c0 .188.012.375.025.561l.561-.561-.558-.557c-.013.185-.028.369-.028.557z"/><path d="m3 44.661v8.678c0 3.654 2.572 6.713 6 7.475v-23.627c-3.428.761-6 3.82-6 7.474z"/><path d="m21.542 26.128 1.458 1.458 1.586-1.586-1.898-1.898c-.475.612-.862 1.292-1.146 2.026z"/></g></svg>